<mxfile host="65bd71144e">
  <diagram id="phase2-questions" name="Phase 2 - Enhanced Questions">
    <mxGraphModel dx="1422" dy="794" grid="1" gridSize="10" guides="1" tooltips="1" connect="1" arrows="1" fold="1" page="1" pageScale="1" pageWidth="375" pageHeight="812" math="0" shadow="0">
      <root>
        <mxCell id="0" />
        <mxCell id="1" parent="0" />
        <mxCell id="2" value="" style="rounded=1;whiteSpace=wrap;html=1;strokeWidth=3;strokeColor=#666666;fillColor=none;" vertex="1" parent="1">
          <mxGeometry x="50" y="50" width="275" height="550" as="geometry" />
        </mxCell>
        <mxCell id="3" value="9:41 AM    📶📶📶 🔋85%" style="text;html=1;strokeColor=none;fillColor=none;align=center;verticalAlign=middle;whiteSpace=wrap;rounded=0;fontSize=12;" vertex="1" parent="1">
          <mxGeometry x="70" y="65" width="235" height="20" as="geometry" />
        </mxCell>
        
        <!-- Progress Header -->
        <mxCell id="4" value="Current projection: $1.47M" style="rounded=1;whiteSpace=wrap;html=1;fillColor=#f0f8ff;strokeColor=#007acc;strokeWidth=1;fontSize=12;fontStyle=1;fontColor=#007acc;" vertex="1" parent="1">
          <mxGeometry x="80" y="95" width="215" height="35" as="geometry" />
        </mxCell>
        
        <!-- Progress Dots -->
        <mxCell id="5" value="● ● ○" style="text;html=1;strokeColor=none;fillColor=none;align=center;verticalAlign=middle;whiteSpace=wrap;rounded=0;fontSize=16;" vertex="1" parent="1">
          <mxGeometry x="80" y="145" width="215" height="20" as="geometry" />
        </mxCell>
        <mxCell id="6" value="Step 2 of 3 - Get More Accurate" style="text;html=1;strokeColor=none;fillColor=none;align=center;verticalAlign=middle;whiteSpace=wrap;rounded=0;fontSize=12;fontColor=#666666;" vertex="1" parent="1">
          <mxGeometry x="80" y="165" width="215" height="20" as="geometry" />
        </mxCell>
        
        <!-- Question 1 -->
        <mxCell id="7" value="Current monthly income (before taxes)" style="text;html=1;strokeColor=none;fillColor=none;align=left;verticalAlign=middle;whiteSpace=wrap;rounded=0;fontSize=14;fontStyle=1;" vertex="1" parent="1">
          <mxGeometry x="90" y="200" width="205" height="25" as="geometry" />
        </mxCell>
        <mxCell id="8" value="$ 8,500" style="rounded=1;whiteSpace=wrap;html=1;fillColor=#ffffff;strokeColor=#007acc;strokeWidth=2;align=center;fontSize=16;" vertex="1" parent="1">
          <mxGeometry x="90" y="230" width="205" height="40" as="geometry" />
        </mxCell>
        
        <!-- Question 2 -->
        <mxCell id="9" value="What age do you want to retire?" style="text;html=1;strokeColor=none;fillColor=none;align=left;verticalAlign=middle;whiteSpace=wrap;rounded=0;fontSize=14;fontStyle=1;" vertex="1" parent="1">
          <mxGeometry x="90" y="290" width="205" height="25" as="geometry" />
        </mxCell>
        <mxCell id="10" value="65" style="rounded=1;whiteSpace=wrap;html=1;fillColor=#ffffff;strokeColor=#cccccc;align=center;fontSize=16;" vertex="1" parent="1">
          <mxGeometry x="90" y="320" width="205" height="40" as="geometry" />
        </mxCell>
        
        <!-- Question 3 -->
        <mxCell id="11" value="Expected monthly expenses in retirement" style="text;html=1;strokeColor=none;fillColor=none;align=left;verticalAlign=middle;whiteSpace=wrap;rounded=0;fontSize=14;fontStyle=1;" vertex="1" parent="1">
          <mxGeometry x="90" y="380" width="205" height="25" as="geometry" />
        </mxCell>
        <mxCell id="12" value="$ 6,000" style="rounded=1;whiteSpace=wrap;html=1;fillColor=#ffffff;strokeColor=#cccccc;align=center;fontSize=16;" vertex="1" parent="1">
          <mxGeometry x="90" y="410" width="205" height="40" as="geometry" />
        </mxCell>
        
        <!-- Real-time Update Preview -->
        <mxCell id="13" value="New projection: $1.52M → 41 years 📈" style="rounded=1;whiteSpace=wrap;html=1;fillColor=#e8f5e8;strokeColor=#28a745;strokeWidth=1;fontSize=12;fontColor=#28a745;fontStyle=1;" vertex="1" parent="1">
          <mxGeometry x="90" y="470" width="205" height="30" as="geometry" />
        </mxCell>
        
        <!-- Assumptions Link -->
        <mxCell id="13a" value="View calculation assumptions" style="text;html=1;strokeColor=none;fillColor=none;align=center;verticalAlign=middle;whiteSpace=wrap;rounded=0;fontSize=11;fontColor=#007acc;textDecoration=underline;" vertex="1" parent="1">
          <mxGeometry x="90" y="505" width="205" height="15" as="geometry" />
        </mxCell>
        
        <!-- Teaser Text -->
        <mxCell id="14a" value="Answer more questions and get more accurate results" style="text;html=1;strokeColor=none;fillColor=none;align=center;verticalAlign=middle;whiteSpace=wrap;rounded=0;fontSize=12;fontColor=#666666;" vertex="1" parent="1">
          <mxGeometry x="90" y="530" width="205" height="20" as="geometry" />
        </mxCell>
        
        <!-- CTA Button -->
        <mxCell id="14" value="Continue" style="rounded=1;whiteSpace=wrap;html=1;fillColor=#007acc;strokeColor=#005a9e;fontColor=#ffffff;fontSize=14;fontStyle=1;" vertex="1" parent="1">
          <mxGeometry x="90" y="560" width="205" height="40" as="geometry" />
        </mxCell>
      </root>
    </mxGraphModel>
  </diagram>
</mxfile>